<?xml version="1.0" encoding="UTF-8"?>
<svg xmlns="http://www.w3.org/2000/svg" version="1.1" viewBox="0 0 612 792">
  <!-- Generator: Adobe Illustrator 29.5.0, SVG Export Plug-In . SVG Version: 2.1.0 Build 137)  -->
  <defs>
    <style>
      .st0 {
        fill: #50a09e;
      }

      .st1 {
        fill: #fff;
      }

      .st2 {
        fill: none;
      }

      .st3 {
        fill: #ffcb64;
      }

      .st4 {
        fill: #231f20;
        stroke: #fff;
        stroke-miterlimit: 10;
      }

      .st5 {
        display: none;
      }
    </style>
  </defs>
  <g id="Layer_2" class="st5">
    <rect class="st4" x="-13.9" y="9.7" width="632.4" height="856.8"/>
  </g>
  <g id="Layer_1">
    <path class="st2" d="M277.4,388.2l14.1-109.7-73.4,73.4,48.2,48.2c5-2.8,8.6-6.7,11.1-11.9Z"/>
    <g>
      <polygon class="st3" points="320.1 254.5 307.9 350.6 403 350.6 407.5 316.2 326.2 234.9 306.6 254.5 320.1 254.5"/>
      <polygon class="st3" points="481.8 400.1 486.6 395.3 482.9 391.6 481.8 400.1"/>
      <path class="st3" d="M390.8,446.5h-97.2c-.6,2.1-1.1,4.1-1.7,6-5.3,17.7-12.9,33.2-22.6,46.3l56.9,56.9,58.1-58.1,6.6-51.1Z"/>
      <polygon class="st3" points="221.3 339.7 165.8 395.3 208.6 438.1 221.3 339.7"/>
    </g>
    <g>
      <polygon class="st2" points="232.8 306.3 150.1 389 222.2 389 232.8 306.3"/>
      <polygon class="st2" points="469.7 437.6 504.2 403 474.1 403 469.7 437.6"/>
      <polygon class="st2" points="334.1 439.3 334.1 573.1 388.8 518.4 399 439.3 334.1 439.3"/>
      <polygon class="st2" points="475.9 389 504.3 389 479.2 363.9 475.9 389"/>
      <polygon class="st2" points="409.3 357.8 416.7 301.4 334.1 218.9 334.1 357.8 409.3 357.8"/>
      <path class="st2" d="M288,439.3c-.9,3.8-1.9,7.6-3,11.2-6.9,22.8-17.4,41.4-31.6,55.9l66.7,66.7v-133.7h-32.1Z"/>
      <path class="st2" d="M202,454.9c6.1-3.5,10.5-8.2,13.6-14.6l4.8-37.2h-70.2l51.8,51.8Z"/>
      <polygon class="st2" points="311.9 261.7 299.7 357.8 320.1 357.8 320.1 219 277.5 261.7 309.3 261.7 311.9 261.7"/>
      <polygon class="st1" points="469.7 437.6 388.8 518.4 334.1 573.1 334.1 606.9 397.1 543.9 464.7 476.3 537.9 403 504.2 403 469.7 437.6"/>
      <polygon class="st1" points="232.8 306.3 235.8 303.4 277.5 261.7 320.1 219 320.1 185.3 243.7 261.7 240.8 264.7 237.8 267.6 116.4 389 150.1 389 232.8 306.3"/>
      <g>
        <polygon class="st1" points="538 389 489.4 340.4 485.6 370.3 504.3 389 538 389"/>
        <path class="st1" d="M320.1,606.7v-33.7l-61.6-61.6c-5.5,5.6-11.8,10.8-18.5,15.3l80,80Z"/>
        <polygon class="st1" points="413.9 264.9 334.1 185.1 334.1 218.9 410.3 295 413.4 270.8 413.9 264.9"/>
        <path class="st1" d="M196.7,449.5l-46.5-46.5h-33.7l52.3,52.3c2.1-.1,4.1-.3,6-.5,9.3-.9,16.5-2.7,21.9-5.4Z"/>
        <path class="st0" d="M397.5,489.9l62.3-62.3,7-7,2.3-18.2,1.8-14,3.2-25.2,3.8-29.9,10.1-88.3h-60.3l-2.4,27h0c0,.1,0,.2,0,.2l-3.9,29.9-7.3,56.4-.6,4.4h-119.7l.7-5.6,11.5-90.5h-13.9l-4.9,4.9-41.7,41.7-3,3-7,7-8.5,66.4-1.8,14-4.8,37.2v.8c-.1,0-.5.7-.5.7-3.5,7.2-8.6,12.7-15.6,16.7-7.1,4.1-16.5,6.7-28.5,7.9-5.7.6-11.8.8-18.7.8h-31.2l-49.5,71h70.3c20.3,0,38.8-2.5,54.9-7.5,11-3.4,21.2-8.2,30.4-14.1,6.5-4.2,12.4-9.1,17.7-14.5,13.6-13.8,23.8-31.9,30.4-53.8,1-3.4,2-7,2.9-10.9l.9-3.8h120.6l-.7,5.6-6.4,50Z"/>
      </g>
    </g>
  </g>
</svg>