<?xml version="1.0" encoding="UTF-8"?>
<svg id="Layer_1" xmlns="http://www.w3.org/2000/svg" version="1.1" viewBox="0 0 474 438">
  <!-- Generator: Adobe Illustrator 29.5.0, SVG Export Plug-In . SVG Version: 2.1.0 Build 137)  -->
  <defs>
    <style>
      .st0 {
        fill: #231f20;
        stroke: #fff;
        stroke-miterlimit: 10;
      }

      .st1 {
        fill: #fff;
      }

      .st2 {
        fill: none;
      }

      .st3 {
        fill: #ffcb64;
      }

      .st4 {
        display: none;
      }

      .st5 {
        fill: #50a09e;
      }
    </style>
  </defs>
  <g id="Layer_2" class="st4">
    <rect class="st0" x="-85.9" y="-167.3" width="632.4" height="856.8"/>
  </g>
  <g id="Layer_11" data-name="Layer_1">
    <path class="st2" d="M205.4,211.2l14.1-109.7-73.4,73.4,48.2,48.2c5-2.8,8.6-6.7,11.1-11.9h0Z"/>
    <g>
      <polygon class="st3" points="248.1 77.5 235.9 173.6 331 173.6 335.5 139.2 254.2 57.9 234.6 77.5 248.1 77.5"/>
      <polygon class="st3" points="409.8 223.1 414.6 218.3 410.9 214.6 409.8 223.1"/>
      <path class="st3" d="M318.8,269.5h-97.2c-.6,2.1-1.1,4.1-1.7,6-5.3,17.7-12.9,33.2-22.6,46.3l56.9,56.9,58.1-58.1,6.6-51.1h0Z"/>
      <polygon class="st3" points="149.3 162.7 93.8 218.3 136.6 261.1 149.3 162.7"/>
    </g>
    <g>
      <polygon class="st2" points="160.8 129.3 78.1 212 150.2 212 160.8 129.3"/>
      <polygon class="st2" points="397.7 260.6 432.2 226 402.1 226 397.7 260.6"/>
      <polygon class="st2" points="262.1 262.3 262.1 396.1 316.8 341.4 327 262.3 262.1 262.3"/>
      <polygon class="st2" points="403.9 212 432.3 212 407.2 186.9 403.9 212"/>
      <polygon class="st2" points="337.3 180.8 344.7 124.4 262.1 41.9 262.1 180.8 337.3 180.8"/>
      <path class="st2" d="M216,262.3c-.9,3.8-1.9,7.6-3,11.2-6.9,22.8-17.4,41.4-31.6,55.9l66.7,66.7v-133.7h-32.1,0Z"/>
      <path class="st2" d="M130,277.9c6.1-3.5,10.5-8.2,13.6-14.6l4.8-37.2h-70.2l51.8,51.8h0Z"/>
      <polygon class="st2" points="239.9 84.7 227.7 180.8 248.1 180.8 248.1 42 205.5 84.7 237.3 84.7 239.9 84.7"/>
      <polygon class="st1" points="397.7 260.6 316.8 341.4 262.1 396.1 262.1 429.9 325.1 366.9 392.7 299.3 465.9 226 432.2 226 397.7 260.6"/>
      <polygon class="st1" points="160.8 129.3 163.8 126.4 205.5 84.7 248.1 42 248.1 8.3 171.7 84.7 168.8 87.7 165.8 90.6 44.4 212 78.1 212 160.8 129.3"/>
      <g>
        <polygon class="st1" points="466 212 417.4 163.4 413.6 193.3 432.3 212 466 212"/>
        <path class="st1" d="M248.1,429.7v-33.7l-61.6-61.6c-5.5,5.6-11.8,10.8-18.5,15.3l80,80h.1Z"/>
        <polygon class="st1" points="341.9 87.9 262.1 8.1 262.1 41.9 338.3 118 341.4 93.8 341.9 87.9"/>
        <path class="st1" d="M124.7,272.5l-46.5-46.5h-33.7l52.3,52.3c2.1-.1,4.1-.3,6-.5,9.3-.9,16.5-2.7,21.9-5.4h0Z"/>
        <path class="st5" d="M325.5,312.9l62.3-62.3,7-7,2.3-18.2,1.8-14,3.2-25.2,3.8-29.9,10.1-88.3h-60.3l-2.4,27h0v.2l-3.9,29.9-7.3,56.4-.6,4.4h-119.7l.7-5.6,11.5-90.5h-13.9l-4.9,4.9-41.7,41.7-3,3-7,7-8.5,66.4-1.8,14-4.8,37.2v.8c-.1,0-.5.7-.5.7-3.5,7.2-8.6,12.7-15.6,16.7-7.1,4.1-16.5,6.7-28.5,7.9-5.7.6-11.8.8-18.7.8h-31.2L4.4,361.9h70.3c20.3,0,38.8-2.5,54.9-7.5,11-3.4,21.2-8.2,30.4-14.1,6.5-4.2,12.4-9.1,17.7-14.5,13.6-13.8,23.8-31.9,30.4-53.8,1-3.4,2-7,2.9-10.9l.9-3.8h120.6l-.7,5.6-6.4,50h.1Z"/>
      </g>
    </g>
  </g>
</svg>